<svg width="18" height="18" viewBox="0 0 18 18" fill="none" xmlns="http://www.w3.org/2000/svg">
<path d="M9 0C12.5951 0 14.3928 -0.000195435 15.6875 0.856445C16.2657 1.239 16.761 1.73434 17.1436 2.3125C18.0002 3.60723 18 5.40493 18 9C18 12.5951 18.0002 14.3928 17.1436 15.6875C16.761 16.2657 16.2657 16.761 15.6875 17.1436C14.3928 18.0002 12.5951 18 9 18C5.40493 18 3.60723 18.0002 2.3125 17.1436C1.73434 16.761 1.239 16.2657 0.856445 15.6875C-0.000195435 14.3928 0 12.5951 0 9C0 5.40493 -0.000195544 3.60723 0.856445 2.3125C1.239 1.73434 1.73434 1.239 2.3125 0.856445C3.60723 -0.000195545 5.40493 0 9 0ZM9 4.33984C6.42686 4.33997 4.34094 6.42589 4.34082 8.99902C4.34082 11.5723 6.42678 13.6581 9 13.6582C11.5733 13.6582 13.6592 11.5723 13.6592 8.99902C13.6591 6.42581 11.5732 4.33984 9 4.33984ZM9 5.91602C10.7026 5.91602 12.0829 7.29643 12.083 8.99902C12.083 10.7017 10.7027 12.082 9 12.082C7.29741 12.0819 5.91699 10.7016 5.91699 8.99902C5.91712 7.29651 7.29749 5.91614 9 5.91602ZM13.8438 3.01172C13.2391 3.01172 12.7491 3.50184 12.749 4.10645C12.749 4.7111 13.2391 5.20117 13.8438 5.20117C14.4484 5.20111 14.9385 4.71106 14.9385 4.10645C14.9384 3.50187 14.4483 3.01178 13.8438 3.01172Z" fill="#3C2610"/>
</svg>
